<svg width="667" height="391" viewBox="0 0 667 391" fill="none" xmlns="http://www.w3.org/2000/svg">
<path d="M49.3415 150.867L209.504 34.9176C238.446 13.7165 270.587 4.61557 305.109 4.50002C320.007 4.45222 334.346 9.57591 346.441 18.2867C376.741 40.0787 419.359 34.035 468.983 12.1429C477.563 8.35349 486.815 6.29421 496.183 6.15387C545.702 5.33289 593.028 28.8883 638.737 70.0757C643.655 74.5197 648.014 79.5966 651.466 85.2554C651.577 85.4511 651.707 85.6485 651.818 85.8442C664.442 106.886 664.837 133.099 653.497 154.857L553.196 347.554C540.364 372.193 514.414 387.172 486.669 385.941L259.264 375.841C253.195 375.569 247.178 374.541 241.382 372.738C171.602 350.986 106.843 324.684 48.5779 292.545C39.8418 287.724 32.2178 281.118 26.2242 273.128C-8.53816 226.817 -2.10824 185.907 49.3398 150.885L49.3415 150.867Z" stroke="#F8F8F8" stroke-width="9" stroke-miterlimit="10"/>
</svg>
